<?xml version="1.0" standalone="no"?>
<!DOCTYPE svg PUBLIC "-//W3C//DTD SVG 20010904//EN"
 "http://www.w3.org/TR/2001/REC-SVG-20010904/DTD/svg10.dtd">
<svg version="1.0" xmlns="http://www.w3.org/2000/svg"
 width="1024.000000pt" height="1024.000000pt" viewBox="0 0 1024.000000 1024.000000"
 preserveAspectRatio="xMidYMid meet">
<metadata>
Created by potrace 1.14, written by Peter Selinger 2001-2017
</metadata>
<g transform="translate(0.000000,1024.000000) scale(0.100000,-0.100000)"
fill="#000000" stroke="none">
<path d="M5065 8976 c-57 -24 -62 -40 -70 -236 -3 -74 -8 -178 -10 -230 -4
-91 -9 -203 -20 -480 -3 -69 -7 -170 -10 -225 -7 -142 -15 -350 -20 -490 -2
-66 -7 -176 -10 -245 -12 -255 -14 -308 -20 -440 -3 -74 -8 -189 -10 -255 -3
-66 -8 -178 -11 -250 -2 -71 -7 -175 -9 -230 -2 -55 -7 -163 -10 -240 -3 -77
-7 -180 -10 -230 -2 -49 -7 -166 -10 -260 -4 -93 -8 -199 -10 -235 -1 -36 -6
-141 -10 -235 -4 -93 -8 -171 -10 -173 -3 -3 -94 57 -105 68 -6 7 -254 180
-278 195 -9 6 -22 16 -30 23 -53 48 -142 51 -190 4 -19 -17 -34 -78 -27 -105
12 -40 30 -77 37 -77 5 0 8 -4 8 -9 0 -5 23 -46 51 -91 28 -45 59 -97 69 -114
9 -18 47 -81 84 -139 43 -70 62 -109 54 -112 -12 -3 -89 -20 -148 -31 -14 -3
-88 -19 -165 -36 -77 -16 -149 -32 -160 -34 -34 -5 -67 -13 -139 -31 -84 -22
-110 -50 -112 -121 -2 -92 32 -112 261 -156 11 -3 40 -9 65 -15 25 -5 59 -12
75 -16 17 -3 99 -20 182 -38 l153 -32 -156 -257 c-133 -220 -156 -264 -157
-301 -5 -120 100 -158 219 -80 33 21 61 41 62 46 2 4 10 7 17 7 7 0 15 3 17 8
2 5 186 131 256 176 12 7 13 -24 8 -190 -3 -110 -8 -289 -11 -399 -8 -277 -13
-376 -17 -381 -6 -5 -200 50 -293 84 -274 100 -517 271 -755 531 -8 9 -40 48
-70 86 -30 39 -58 72 -62 73 -5 2 -8 8 -8 13 0 4 -20 39 -44 76 -68 106 -132
242 -181 383 -1 3 -5 12 -8 20 -21 51 -63 257 -73 363 -14 129 -9 348 10 507
20 158 77 344 164 530 66 141 213 340 374 505 65 67 124 137 132 156 19 45 15
144 -7 186 -18 34 -53 73 -103 111 -79 62 -100 80 -142 117 -157 139 -221 212
-390 443 -77 104 -214 411 -247 552 -2 8 -11 47 -20 85 -36 153 -52 323 -50
520 2 104 5 204 8 220 4 17 11 59 16 95 19 117 45 218 99 382 44 133 46 184
11 252 -45 87 -120 137 -209 138 -56 1 -130 -24 -163 -56 -7 -6 -48 -38 -92
-70 -205 -152 -433 -360 -636 -581 -75 -82 -220 -272 -305 -400 -74 -110 -96
-147 -162 -260 -91 -158 -273 -584 -297 -695 -2 -8 -13 -42 -25 -75 -11 -33
-37 -126 -56 -207 l-35 -146 305 -307 c168 -169 306 -308 306 -309 0 -2 -152
-3 -337 -4 -186 0 -345 -1 -354 -1 -20 -1 -23 -39 -23 -321 -1 -197 7 -356 20
-423 2 -12 6 -39 9 -62 3 -22 12 -74 20 -115 8 -41 16 -85 18 -97 2 -13 182
-200 446 -465 l443 -443 -300 -3 -300 -2 69 -140 c38 -77 79 -157 92 -178 13
-20 39 -64 57 -97 18 -33 45 -78 59 -99 14 -21 31 -46 36 -55 53 -83 121 -177
185 -256 31 -38 63 -80 72 -93 28 -41 169 -193 278 -301 271 -267 626 -531
935 -696 50 -26 95 -51 100 -55 6 -4 73 -37 150 -73 160 -74 374 -156 520
-198 55 -16 123 -36 150 -44 44 -13 257 -61 310 -70 60 -10 207 -32 275 -40
205 -26 678 -26 900 0 19 3 57 7 85 10 43 5 84 12 245 40 78 14 270 59 350 82
47 13 92 26 100 28 13 3 65 21 245 85 28 10 80 32 117 49 36 17 69 31 73 31
17 0 318 157 437 229 312 188 565 386 829 650 136 136 214 225 322 361 88 111
244 340 299 440 14 25 39 68 55 95 38 64 143 274 143 286 0 5 -128 10 -296 11
l-297 3 446 445 c244 245 445 450 445 455 0 14 13 106 18 130 2 11 6 35 9 54
2 18 7 50 10 71 6 38 8 63 21 225 8 95 10 352 4 468 -3 50 -8 70 -19 75 -9 4
-168 7 -353 6 -287 -1 -336 1 -326 13 6 8 143 146 305 308 161 163 293 299
293 303 0 36 -100 396 -121 434 -5 10 -9 27 -9 38 0 11 -4 28 -9 38 -6 9 -33
78 -62 152 -47 122 -171 389 -216 465 -10 17 -36 62 -57 100 -22 39 -42 72
-45 75 -3 3 -37 52 -76 110 -38 58 -77 114 -87 125 -9 11 -41 53 -71 93 -157
209 -432 483 -677 675 -47 37 -90 72 -97 77 -62 51 -131 90 -171 96 -109 17
-173 1 -230 -57 -88 -89 -96 -209 -26 -365 12 -28 57 -187 70 -247 38 -180 52
-525 29 -692 -23 -161 -26 -179 -42 -240 -8 -33 -17 -71 -19 -83 -3 -13 -18
-63 -34 -110 -124 -370 -343 -676 -680 -952 -119 -97 -151 -130 -172 -179 -22
-52 -21 -138 3 -184 8 -14 68 -82 134 -149 229 -235 360 -441 457 -718 16 -47
31 -94 34 -105 2 -11 11 -51 19 -90 15 -68 17 -85 32 -210 9 -78 9 -321 0
-410 -12 -119 -18 -157 -43 -257 -118 -477 -437 -902 -865 -1155 -70 -41 -165
-91 -189 -98 -3 -1 -23 -9 -45 -19 -77 -34 -239 -83 -247 -75 -2 1 -12 -2 -23
-8 -11 -6 -36 -13 -55 -17 l-35 -6 -1 93 c-1 50 -5 180 -8 287 -22 679 -27
615 45 558 20 -15 41 -28 45 -29 5 0 29 -15 54 -34 25 -18 86 -59 135 -91 50
-32 96 -64 103 -71 7 -7 24 -14 38 -14 13 -1 30 -2 37 -2 32 -3 74 15 91 39
25 36 25 109 -1 154 -72 123 -123 207 -132 217 -6 7 -11 14 -11 17 0 3 -34 60
-75 128 l-75 123 147 32 c82 18 159 34 173 37 14 2 50 10 80 16 30 6 66 13 80
16 14 3 34 8 45 11 11 3 30 7 42 9 11 1 46 9 77 18 70 21 96 55 92 123 -4 75
-44 108 -157 128 -14 3 -100 21 -190 40 -90 19 -212 45 -271 57 -60 12 -108
27 -108 32 0 10 19 43 203 344 89 147 99 168 99 211 0 57 -22 95 -62 109 -32
12 -110 8 -119 -5 -3 -5 -58 -43 -121 -86 -63 -42 -162 -109 -219 -147 -57
-39 -108 -72 -114 -73 -5 -1 -11 27 -12 68 -2 39 -6 147 -9 240 -4 94 -9 222
-11 285 -3 63 -7 167 -10 230 -5 106 -11 266 -20 530 -2 58 -6 175 -10 260 -3
85 -8 198 -10 250 -2 52 -7 169 -10 260 -3 91 -8 212 -10 270 -2 58 -7 173
-10 255 -3 83 -8 197 -10 255 -3 58 -7 175 -10 260 -3 85 -7 209 -10 275 -4
110 -6 176 -20 520 -3 66 -7 183 -10 261 -7 164 -12 191 -46 216 -31 23 -96
30 -134 14z"/>
</g>
</svg>
